<?xml version="1.0" standalone="no"?>
<svg xmlns:xlink="http://www.w3.org/1999/xlink" id="wave" style="transform:rotate(0deg); transition: 0.3s" viewBox="0 0 1440 490" version="1.1" xmlns="http://www.w3.org/2000/svg"><defs><linearGradient id="sw-gradient-0" x1="0" x2="0" y1="1" y2="0"><stop stop-color="rgba(126.028, 27.769, 228.105, 1)" offset="0%"/><stop stop-color="rgba(89.349, 11, 255, 1)" offset="100%"/></linearGradient></defs><path style="transform:translate(0, 0px); opacity:1" fill="url(#sw-gradient-0)" d="M0,196L26.7,228.7C53.3,261,107,327,160,326.7C213.3,327,267,261,320,269.5C373.3,278,427,359,480,400.2C533.3,441,587,441,640,432.8C693.3,425,747,408,800,392C853.3,376,907,359,960,310.3C1013.3,261,1067,180,1120,163.3C1173.3,147,1227,196,1280,196C1333.3,196,1387,147,1440,130.7C1493.3,114,1547,131,1600,171.5C1653.3,212,1707,278,1760,285.8C1813.3,294,1867,245,1920,228.7C1973.3,212,2027,229,2080,261.3C2133.3,294,2187,343,2240,326.7C2293.3,310,2347,229,2400,236.8C2453.3,245,2507,343,2560,359.3C2613.3,376,2667,310,2720,253.2C2773.3,196,2827,147,2880,155.2C2933.3,163,2987,229,3040,285.8C3093.3,343,3147,392,3200,351.2C3253.3,310,3307,180,3360,138.8C3413.3,98,3467,147,3520,187.8C3573.3,229,3627,261,3680,245C3733.3,229,3787,163,3813,130.7L3840,98L3840,490L3813.3,490C3786.7,490,3733,490,3680,490C3626.7,490,3573,490,3520,490C3466.7,490,3413,490,3360,490C3306.7,490,3253,490,3200,490C3146.7,490,3093,490,3040,490C2986.7,490,2933,490,2880,490C2826.7,490,2773,490,2720,490C2666.7,490,2613,490,2560,490C2506.7,490,2453,490,2400,490C2346.7,490,2293,490,2240,490C2186.7,490,2133,490,2080,490C2026.7,490,1973,490,1920,490C1866.7,490,1813,490,1760,490C1706.7,490,1653,490,1600,490C1546.7,490,1493,490,1440,490C1386.7,490,1333,490,1280,490C1226.7,490,1173,490,1120,490C1066.7,490,1013,490,960,490C906.7,490,853,490,800,490C746.7,490,693,490,640,490C586.7,490,533,490,480,490C426.7,490,373,490,320,490C266.7,490,213,490,160,490C106.7,490,53,490,27,490L0,490Z"/></svg>